<?xml version="1.0" encoding="UTF-8" standalone="no"?>
<!DOCTYPE svg PUBLIC "-//W3C//DTD SVG 1.1//EN" "http://www.w3.org/Graphics/SVG/1.1/DTD/svg11.dtd">
<svg width="100%" height="100%" viewBox="0 0 745 224" version="1.1" xmlns="http://www.w3.org/2000/svg" xmlns:xlink="http://www.w3.org/1999/xlink" xml:space="preserve" xmlns:serif="http://www.serif.com/" style="fill-rule:evenodd;clip-rule:evenodd;stroke-linejoin:round;stroke-miterlimit:2;">
    <g>
        <g transform="matrix(60,0,0,60,65.0086,223.494)">
            <path d="M0.59,-0.354L0.686,-0.354L0.686,-0.081C0.651,-0.052 0.611,-0.03 0.565,-0.015C0.519,0 0.471,0.008 0.421,0.008C0.35,0.008 0.287,-0.008 0.23,-0.039C0.173,-0.07 0.129,-0.112 0.097,-0.167C0.064,-0.221 0.048,-0.282 0.048,-0.35C0.048,-0.418 0.064,-0.479 0.097,-0.534C0.129,-0.589 0.173,-0.631 0.231,-0.662C0.288,-0.693 0.352,-0.708 0.423,-0.708C0.479,-0.708 0.53,-0.699 0.576,-0.681C0.621,-0.662 0.66,-0.635 0.692,-0.6L0.63,-0.538C0.574,-0.592 0.506,-0.619 0.427,-0.619C0.374,-0.619 0.326,-0.608 0.284,-0.585C0.241,-0.562 0.208,-0.53 0.184,-0.489C0.16,-0.448 0.148,-0.401 0.148,-0.35C0.148,-0.299 0.16,-0.254 0.184,-0.213C0.208,-0.171 0.241,-0.139 0.284,-0.116C0.326,-0.093 0.373,-0.081 0.426,-0.081C0.489,-0.081 0.543,-0.096 0.59,-0.126L0.59,-0.354Z" style="fill:rgb(173,24,43);fill-rule:nonzero;"/>
        </g>
        <rect x="119.129" y="181.494" width="6" height="42" style="fill:rgb(173,24,43);fill-rule:nonzero;"/>
        <g transform="matrix(60,0,0,60,132.929,223.494)">
            <path d="M0.551,-0.175L0.179,-0.175L0.102,0L-0.001,0L0.316,-0.7L0.415,-0.7L0.733,0L0.628,0L0.551,-0.175ZM0.516,-0.255L0.365,-0.598L0.214,-0.255L0.516,-0.255Z" style="fill:rgb(173,24,43);fill-rule:nonzero;"/>
        </g>
        <g transform="matrix(60,0,0,60,178.349,223.494)">
            <path d="M0.707,-0.7L0.707,0L0.625,0L0.205,-0.522L0.205,0L0.105,0L0.105,-0.7L0.187,-0.7L0.607,-0.178L0.607,-0.7L0.707,-0.7Z" style="fill:rgb(173,24,43);fill-rule:nonzero;"/>
        </g>
        <g transform="matrix(60,0,0,60,228.569,223.494)">
            <path d="M0.707,-0.7L0.707,0L0.625,0L0.205,-0.522L0.205,0L0.105,0L0.105,-0.7L0.187,-0.7L0.607,-0.178L0.607,-0.7L0.707,-0.7Z" style="fill:rgb(173,24,43);fill-rule:nonzero;"/>
        </g>
        <g transform="matrix(60,0,0,60,278.789,223.494)">
            <path d="M0.551,-0.175L0.179,-0.175L0.102,0L-0.001,0L0.316,-0.7L0.415,-0.7L0.733,0L0.628,0L0.551,-0.175ZM0.516,-0.255L0.365,-0.598L0.214,-0.255L0.516,-0.255Z" style="fill:rgb(173,24,43);fill-rule:nonzero;"/>
        </g>
        <g transform="matrix(60,0,0,60,341.849,223.494)">
            <path d="M0.309,0.008C0.256,0.008 0.206,0 0.157,-0.017C0.108,-0.033 0.069,-0.054 0.041,-0.08L0.078,-0.158C0.105,-0.134 0.139,-0.115 0.181,-0.1C0.222,-0.085 0.265,-0.077 0.309,-0.077C0.367,-0.077 0.41,-0.087 0.439,-0.107C0.468,-0.126 0.482,-0.152 0.482,-0.185C0.482,-0.209 0.474,-0.229 0.459,-0.244C0.443,-0.259 0.424,-0.27 0.401,-0.278C0.378,-0.286 0.345,-0.295 0.303,-0.305C0.25,-0.318 0.208,-0.33 0.176,-0.343C0.143,-0.356 0.116,-0.375 0.093,-0.402C0.07,-0.428 0.058,-0.463 0.058,-0.508C0.058,-0.545 0.068,-0.579 0.088,-0.609C0.107,-0.639 0.137,-0.663 0.177,-0.681C0.217,-0.699 0.267,-0.708 0.326,-0.708C0.367,-0.708 0.408,-0.703 0.448,-0.692C0.488,-0.681 0.522,-0.666 0.551,-0.646L0.518,-0.566C0.489,-0.585 0.457,-0.599 0.424,-0.609C0.391,-0.618 0.358,-0.623 0.326,-0.623C0.269,-0.623 0.227,-0.613 0.199,-0.592C0.17,-0.571 0.156,-0.545 0.156,-0.512C0.156,-0.488 0.164,-0.468 0.18,-0.454C0.196,-0.439 0.216,-0.427 0.24,-0.419C0.263,-0.41 0.295,-0.401 0.336,-0.392C0.389,-0.379 0.431,-0.367 0.463,-0.354C0.495,-0.341 0.523,-0.322 0.546,-0.296C0.568,-0.27 0.58,-0.235 0.58,-0.191C0.58,-0.154 0.57,-0.121 0.55,-0.091C0.53,-0.06 0.5,-0.036 0.459,-0.019C0.418,-0.001 0.368,0.008 0.309,0.008Z" style="fill:rgb(173,24,43);fill-rule:nonzero;"/>
        </g>
        <g transform="matrix(60,0,0,60,380.009,223.494)">
            <path d="M0.244,-0.613L0.004,-0.613L0.004,-0.7L0.583,-0.7L0.583,-0.613L0.343,-0.613L0.343,0L0.244,0L0.244,-0.613Z" style="fill:rgb(173,24,43);fill-rule:nonzero;"/>
        </g>
        <g transform="matrix(60,0,0,60,416.729,223.494)">
            <path d="M0.613,-0.087L0.613,0L0.105,0L0.105,-0.7L0.599,-0.7L0.599,-0.613L0.205,-0.613L0.205,-0.398L0.556,-0.398L0.556,-0.313L0.205,-0.313L0.205,-0.087L0.613,-0.087Z" style="fill:rgb(173,24,43);fill-rule:nonzero;"/>
        </g>
        <g transform="matrix(60,0,0,60,458.429,223.494)">
            <path d="M0.205,-0.613L0.205,-0.369L0.556,-0.369L0.556,-0.283L0.205,-0.283L0.205,-0L0.105,-0L0.105,-0.7L0.599,-0.7L0.599,-0.613L0.205,-0.613Z" style="fill:rgb(173,24,43);fill-rule:nonzero;"/>
        </g>
        <g transform="matrix(60,0,0,60,496.109,223.494)">
            <path d="M0.551,-0.175L0.179,-0.175L0.102,0L-0.001,0L0.316,-0.7L0.415,-0.7L0.733,0L0.628,0L0.551,-0.175ZM0.516,-0.255L0.365,-0.598L0.214,-0.255L0.516,-0.255Z" style="fill:rgb(173,24,43);fill-rule:nonzero;"/>
        </g>
        <g transform="matrix(60,0,0,60,541.529,223.494)">
            <path d="M0.707,-0.7L0.707,0L0.625,0L0.205,-0.522L0.205,0L0.105,0L0.105,-0.7L0.187,-0.7L0.607,-0.178L0.607,-0.7L0.707,-0.7Z" style="fill:rgb(173,24,43);fill-rule:nonzero;"/>
        </g>
        <rect x="598.049" y="181.494" width="6" height="42" style="fill:rgb(173,24,43);fill-rule:nonzero;"/>
        <g transform="matrix(60,0,0,60,611.849,223.494)">
            <path d="M0.707,-0.7L0.707,0L0.625,0L0.205,-0.522L0.205,0L0.105,0L0.105,-0.7L0.187,-0.7L0.607,-0.178L0.607,-0.7L0.707,-0.7Z" style="fill:rgb(173,24,43);fill-rule:nonzero;"/>
        </g>
        <rect x="668.369" y="181.494" width="6" height="42" style="fill:rgb(173,24,43);fill-rule:nonzero;"/>
        <g transform="matrix(202.74,0,0,202.74,-7.9074,107.249)">
            <path d="M0.163,0.007C0.12,0.007 0.088,-0.004 0.069,-0.026C0.049,-0.047 0.039,-0.076 0.039,-0.112C0.039,-0.14 0.046,-0.163 0.06,-0.182C0.073,-0.2 0.091,-0.215 0.112,-0.227C0.133,-0.238 0.156,-0.248 0.18,-0.257C0.203,-0.265 0.226,-0.273 0.247,-0.281C0.268,-0.289 0.286,-0.298 0.3,-0.308C0.313,-0.318 0.32,-0.331 0.32,-0.346L0.32,-0.408C0.32,-0.436 0.316,-0.457 0.308,-0.472C0.299,-0.487 0.288,-0.497 0.274,-0.502C0.26,-0.507 0.244,-0.509 0.227,-0.509C0.21,-0.509 0.193,-0.507 0.174,-0.502C0.155,-0.497 0.139,-0.488 0.128,-0.473C0.141,-0.47 0.152,-0.464 0.161,-0.453C0.17,-0.442 0.175,-0.429 0.175,-0.412C0.175,-0.395 0.17,-0.382 0.159,-0.373C0.148,-0.363 0.135,-0.358 0.118,-0.358C0.099,-0.358 0.085,-0.364 0.076,-0.377C0.067,-0.389 0.062,-0.403 0.062,-0.418C0.062,-0.435 0.066,-0.449 0.075,-0.46C0.084,-0.471 0.095,-0.481 0.108,-0.49C0.123,-0.501 0.143,-0.51 0.168,-0.518C0.192,-0.525 0.219,-0.529 0.25,-0.529C0.277,-0.529 0.301,-0.526 0.32,-0.52C0.339,-0.513 0.355,-0.504 0.368,-0.492C0.385,-0.476 0.397,-0.456 0.402,-0.434C0.407,-0.411 0.41,-0.383 0.41,-0.351L0.41,-0.073C0.41,-0.057 0.412,-0.045 0.417,-0.038C0.422,-0.03 0.43,-0.026 0.441,-0.026C0.45,-0.026 0.459,-0.028 0.466,-0.032C0.472,-0.036 0.479,-0.041 0.486,-0.047L0.497,-0.03C0.483,-0.019 0.47,-0.011 0.457,-0.004C0.444,0.004 0.427,0.007 0.406,0.007C0.371,0.007 0.348,-0.002 0.337,-0.02C0.326,-0.038 0.32,-0.059 0.32,-0.082C0.299,-0.047 0.275,-0.023 0.248,-0.011C0.221,0.001 0.192,0.007 0.163,0.007ZM0.207,-0.033C0.227,-0.033 0.247,-0.039 0.266,-0.051C0.285,-0.062 0.303,-0.082 0.32,-0.109L0.32,-0.305C0.31,-0.29 0.295,-0.279 0.274,-0.27C0.253,-0.261 0.231,-0.252 0.209,-0.242C0.186,-0.231 0.167,-0.217 0.151,-0.2C0.135,-0.182 0.127,-0.157 0.127,-0.124C0.127,-0.093 0.135,-0.07 0.15,-0.056C0.165,-0.041 0.184,-0.033 0.207,-0.033Z" style="fill:rgb(173,24,43);fill-rule:nonzero;"/>
        </g>
        <g transform="matrix(202.74,0,0,202.74,101.14,107.249)">
            <path d="M0.34,-0.529C0.358,-0.529 0.374,-0.525 0.388,-0.518C0.401,-0.511 0.412,-0.501 0.42,-0.49C0.427,-0.478 0.431,-0.465 0.431,-0.45C0.431,-0.433 0.426,-0.419 0.416,-0.406C0.405,-0.393 0.391,-0.387 0.374,-0.387C0.36,-0.387 0.348,-0.392 0.337,-0.401C0.326,-0.41 0.321,-0.422 0.321,-0.439C0.321,-0.452 0.325,-0.463 0.332,-0.472C0.339,-0.481 0.346,-0.488 0.355,-0.493C0.35,-0.5 0.343,-0.503 0.334,-0.503C0.306,-0.503 0.282,-0.493 0.261,-0.472C0.24,-0.451 0.224,-0.425 0.213,-0.396C0.201,-0.367 0.195,-0.34 0.195,-0.315L0.195,-0.103C0.195,-0.07 0.205,-0.048 0.224,-0.038C0.243,-0.027 0.268,-0.021 0.301,-0.021L0.301,0C0.286,-0.001 0.264,-0.002 0.236,-0.003C0.208,-0.004 0.178,-0.004 0.147,-0.004C0.124,-0.004 0.102,-0.004 0.08,-0.003C0.057,-0.002 0.04,-0.001 0.029,0L0.029,-0.021C0.056,-0.021 0.076,-0.026 0.088,-0.036C0.099,-0.046 0.105,-0.065 0.105,-0.093L0.105,-0.406C0.105,-0.436 0.1,-0.458 0.089,-0.473C0.078,-0.487 0.058,-0.494 0.029,-0.494L0.029,-0.515C0.05,-0.513 0.071,-0.512 0.091,-0.512C0.11,-0.512 0.129,-0.513 0.147,-0.516C0.164,-0.518 0.18,-0.521 0.195,-0.526L0.195,-0.401C0.202,-0.42 0.213,-0.44 0.227,-0.46C0.24,-0.479 0.257,-0.496 0.276,-0.509C0.295,-0.522 0.317,-0.529 0.34,-0.529Z" style="fill:rgb(173,24,43);fill-rule:nonzero;"/>
        </g>
        <g transform="matrix(202.74,0,0,202.74,194.442,107.249)">
            <path d="M0.208,-0.529C0.235,-0.529 0.257,-0.525 0.276,-0.516C0.295,-0.507 0.308,-0.499 0.317,-0.492C0.339,-0.474 0.352,-0.486 0.357,-0.528L0.38,-0.528C0.379,-0.509 0.378,-0.487 0.377,-0.462C0.376,-0.436 0.376,-0.401 0.376,-0.358L0.353,-0.358C0.349,-0.383 0.342,-0.407 0.333,-0.43C0.323,-0.453 0.309,-0.472 0.29,-0.488C0.271,-0.503 0.247,-0.51 0.217,-0.51C0.194,-0.51 0.174,-0.503 0.159,-0.491C0.143,-0.478 0.135,-0.458 0.135,-0.433C0.135,-0.413 0.141,-0.396 0.153,-0.382C0.165,-0.367 0.181,-0.354 0.2,-0.342C0.219,-0.329 0.24,-0.316 0.263,-0.301C0.301,-0.276 0.333,-0.251 0.36,-0.226C0.387,-0.201 0.4,-0.167 0.4,-0.126C0.4,-0.095 0.392,-0.07 0.376,-0.049C0.36,-0.028 0.339,-0.013 0.314,-0.002C0.288,0.009 0.26,0.014 0.229,0.014C0.214,0.014 0.201,0.013 0.188,0.011C0.175,0.008 0.162,0.005 0.15,-0C0.143,-0.003 0.137,-0.007 0.13,-0.012C0.123,-0.017 0.116,-0.022 0.109,-0.027C0.102,-0.032 0.096,-0.032 0.091,-0.027C0.086,-0.021 0.082,-0.01 0.079,0.007L0.056,0.007C0.057,-0.014 0.058,-0.04 0.059,-0.071C0.06,-0.102 0.06,-0.142 0.06,-0.193L0.083,-0.193C0.088,-0.156 0.094,-0.123 0.103,-0.095C0.112,-0.067 0.125,-0.045 0.144,-0.03C0.163,-0.014 0.189,-0.006 0.222,-0.006C0.242,-0.006 0.262,-0.013 0.282,-0.027C0.301,-0.041 0.311,-0.066 0.311,-0.101C0.311,-0.13 0.3,-0.154 0.279,-0.173C0.258,-0.192 0.231,-0.211 0.198,-0.232C0.174,-0.247 0.152,-0.263 0.131,-0.278C0.11,-0.293 0.093,-0.311 0.08,-0.33C0.067,-0.349 0.06,-0.373 0.06,-0.4C0.06,-0.43 0.067,-0.455 0.081,-0.474C0.094,-0.493 0.112,-0.506 0.135,-0.516C0.158,-0.525 0.182,-0.529 0.208,-0.529Z" style="fill:rgb(173,24,43);fill-rule:nonzero;"/>
        </g>
        <g transform="matrix(202.74,0,0,202.74,351.713,107.249)">
            <path d="M0.359,-0.529C0.382,-0.529 0.403,-0.526 0.42,-0.519C0.437,-0.512 0.452,-0.503 0.463,-0.491C0.476,-0.478 0.484,-0.46 0.489,-0.439C0.494,-0.418 0.496,-0.391 0.496,-0.36L0.496,-0.093C0.496,-0.065 0.502,-0.046 0.514,-0.036C0.525,-0.026 0.545,-0.021 0.572,-0.021L0.572,0C0.561,-0.001 0.543,-0.002 0.52,-0.003C0.497,-0.004 0.474,-0.004 0.452,-0.004C0.43,-0.004 0.409,-0.004 0.388,-0.003C0.367,-0.002 0.351,-0.001 0.34,0L0.34,-0.021C0.364,-0.021 0.381,-0.026 0.391,-0.036C0.401,-0.046 0.406,-0.065 0.406,-0.093L0.406,-0.382C0.406,-0.403 0.405,-0.422 0.402,-0.439C0.399,-0.456 0.393,-0.47 0.382,-0.481C0.371,-0.492 0.354,-0.497 0.33,-0.497C0.304,-0.497 0.281,-0.489 0.261,-0.473C0.24,-0.457 0.224,-0.435 0.213,-0.408C0.201,-0.38 0.195,-0.349 0.195,-0.315L0.195,-0.093C0.195,-0.065 0.2,-0.046 0.21,-0.036C0.22,-0.026 0.237,-0.021 0.261,-0.021L0.261,0C0.25,-0.001 0.235,-0.002 0.214,-0.003C0.193,-0.004 0.171,-0.004 0.149,-0.004C0.127,-0.004 0.104,-0.004 0.081,-0.003C0.058,-0.002 0.04,-0.001 0.029,0L0.029,-0.021C0.056,-0.021 0.076,-0.026 0.088,-0.036C0.099,-0.046 0.105,-0.065 0.105,-0.093L0.105,-0.406C0.105,-0.436 0.1,-0.458 0.089,-0.473C0.078,-0.487 0.058,-0.494 0.029,-0.494L0.029,-0.515C0.05,-0.513 0.071,-0.512 0.091,-0.512C0.11,-0.512 0.129,-0.513 0.147,-0.516C0.164,-0.518 0.18,-0.521 0.195,-0.526L0.195,-0.408C0.212,-0.451 0.236,-0.482 0.266,-0.501C0.296,-0.52 0.327,-0.529 0.359,-0.529ZM0.66,-0.529C0.683,-0.529 0.704,-0.526 0.721,-0.519C0.738,-0.512 0.753,-0.503 0.764,-0.491C0.777,-0.478 0.785,-0.46 0.79,-0.439C0.795,-0.418 0.797,-0.391 0.797,-0.36L0.797,-0.093C0.797,-0.065 0.803,-0.046 0.815,-0.036C0.826,-0.026 0.846,-0.021 0.873,-0.021L0.873,0C0.862,-0.001 0.844,-0.002 0.821,-0.003C0.798,-0.004 0.775,-0.004 0.753,-0.004C0.731,-0.004 0.709,-0.004 0.689,-0.003C0.668,-0.002 0.652,-0.001 0.641,0L0.641,-0.021C0.665,-0.021 0.682,-0.026 0.692,-0.036C0.702,-0.046 0.707,-0.065 0.707,-0.093L0.707,-0.382C0.707,-0.403 0.706,-0.422 0.703,-0.439C0.7,-0.456 0.694,-0.47 0.683,-0.481C0.672,-0.492 0.655,-0.497 0.631,-0.497C0.592,-0.497 0.56,-0.48 0.535,-0.445C0.509,-0.41 0.496,-0.367 0.496,-0.316L0.493,-0.409C0.511,-0.455 0.535,-0.487 0.566,-0.504C0.597,-0.521 0.628,-0.529 0.66,-0.529Z" style="fill:rgb(173,24,43);fill-rule:nonzero;"/>
        </g>
        <g transform="matrix(202.74,0,0,202.74,534.828,107.249)">
            <path d="M0.272,-0.529C0.331,-0.529 0.377,-0.511 0.41,-0.476C0.443,-0.44 0.459,-0.384 0.459,-0.309L0.106,-0.309L0.105,-0.328L0.363,-0.328C0.364,-0.361 0.362,-0.391 0.355,-0.419C0.348,-0.446 0.338,-0.468 0.324,-0.485C0.309,-0.502 0.291,-0.51 0.268,-0.51C0.237,-0.51 0.21,-0.495 0.187,-0.464C0.163,-0.433 0.149,-0.385 0.144,-0.318L0.147,-0.314C0.146,-0.304 0.145,-0.293 0.144,-0.281C0.143,-0.269 0.143,-0.257 0.143,-0.245C0.143,-0.2 0.15,-0.161 0.165,-0.128C0.18,-0.095 0.199,-0.07 0.223,-0.054C0.246,-0.037 0.271,-0.028 0.296,-0.028C0.326,-0.028 0.354,-0.035 0.379,-0.05C0.404,-0.065 0.426,-0.091 0.443,-0.128L0.463,-0.12C0.456,-0.098 0.444,-0.077 0.427,-0.056C0.41,-0.035 0.389,-0.019 0.364,-0.006C0.339,0.008 0.309,0.014 0.276,0.014C0.228,0.014 0.187,0.003 0.153,-0.019C0.118,-0.041 0.092,-0.072 0.074,-0.111C0.055,-0.15 0.046,-0.194 0.046,-0.245C0.046,-0.304 0.055,-0.354 0.074,-0.397C0.093,-0.439 0.119,-0.472 0.153,-0.495C0.187,-0.518 0.227,-0.529 0.272,-0.529Z" style="fill:rgb(173,24,43);fill-rule:nonzero;"/>
        </g>
        <g transform="matrix(202.74,0,0,202.74,643.497,107.249)">
            <path d="M0.163,0.007C0.12,0.007 0.088,-0.004 0.069,-0.026C0.049,-0.047 0.039,-0.076 0.039,-0.112C0.039,-0.14 0.046,-0.163 0.06,-0.182C0.073,-0.2 0.091,-0.215 0.112,-0.227C0.133,-0.238 0.156,-0.248 0.18,-0.257C0.203,-0.265 0.226,-0.273 0.247,-0.281C0.268,-0.289 0.286,-0.298 0.3,-0.308C0.313,-0.318 0.32,-0.331 0.32,-0.346L0.32,-0.408C0.32,-0.436 0.316,-0.457 0.308,-0.472C0.299,-0.487 0.288,-0.497 0.274,-0.502C0.26,-0.507 0.244,-0.509 0.227,-0.509C0.21,-0.509 0.193,-0.507 0.174,-0.502C0.155,-0.497 0.139,-0.488 0.128,-0.473C0.141,-0.47 0.152,-0.464 0.161,-0.453C0.17,-0.442 0.175,-0.429 0.175,-0.412C0.175,-0.395 0.17,-0.382 0.159,-0.373C0.148,-0.363 0.135,-0.358 0.118,-0.358C0.099,-0.358 0.085,-0.364 0.076,-0.377C0.067,-0.389 0.062,-0.403 0.062,-0.418C0.062,-0.435 0.066,-0.449 0.075,-0.46C0.084,-0.471 0.095,-0.481 0.108,-0.49C0.123,-0.501 0.143,-0.51 0.168,-0.518C0.192,-0.525 0.219,-0.529 0.25,-0.529C0.277,-0.529 0.301,-0.526 0.32,-0.52C0.339,-0.513 0.355,-0.504 0.368,-0.492C0.385,-0.476 0.397,-0.456 0.402,-0.434C0.407,-0.411 0.41,-0.383 0.41,-0.351L0.41,-0.073C0.41,-0.057 0.412,-0.045 0.417,-0.038C0.422,-0.03 0.43,-0.026 0.441,-0.026C0.45,-0.026 0.459,-0.028 0.466,-0.032C0.472,-0.036 0.479,-0.041 0.486,-0.047L0.497,-0.03C0.483,-0.019 0.47,-0.011 0.457,-0.004C0.444,0.004 0.427,0.007 0.406,0.007C0.371,0.007 0.348,-0.002 0.337,-0.02C0.326,-0.038 0.32,-0.059 0.32,-0.082C0.299,-0.047 0.275,-0.023 0.248,-0.011C0.221,0.001 0.192,0.007 0.163,0.007ZM0.207,-0.033C0.227,-0.033 0.247,-0.039 0.266,-0.051C0.285,-0.062 0.303,-0.082 0.32,-0.109L0.32,-0.305C0.31,-0.29 0.295,-0.279 0.274,-0.27C0.253,-0.261 0.231,-0.252 0.209,-0.242C0.186,-0.231 0.167,-0.217 0.151,-0.2C0.135,-0.182 0.127,-0.157 0.127,-0.124C0.127,-0.093 0.135,-0.07 0.15,-0.056C0.165,-0.041 0.184,-0.033 0.207,-0.033Z" style="fill:rgb(173,24,43);fill-rule:nonzero;"/>
        </g>
    </g>
</svg>
