<svg clip-rule="evenodd" fill-rule="evenodd" stroke-linejoin="round" stroke-miterlimit="2" viewBox="0 0 3285 900" xmlns="http://www.w3.org/2000/svg"><g fill-rule="nonzero"><path d="m233.452 452.752c-36.606 0-63.216-9.151-79.829-27.453-16.614-18.301-24.92-42.656-24.92-73.065 0-23.651 5.772-43.22 17.317-58.706s26.328-28.156 44.349-38.011c18.022-9.854 37.029-18.301 57.021-25.34s38.999-13.937 57.021-20.695c18.021-6.757 32.804-14.36 44.349-22.806 11.545-8.447 17.317-19.147 17.317-32.098v-52.371c0-23.651-3.519-41.671-10.559-54.06s-16.473-20.695-28.299-24.918c-11.827-4.224-25.061-6.335-39.703-6.335-14.08 0-29.144 1.971-45.194 5.913-16.051 3.941-28.863 12.107-38.437 24.495 10.701 2.253 19.993 7.884 27.877 16.894s11.827 20.554 11.827 34.632-4.506 25.2-13.516 33.365c-9.011 8.166-20.556 12.248-34.635 12.248-16.332 0-28.299-5.209-35.902-15.626-7.603-10.418-11.404-22.103-11.404-35.055 0-14.641 3.661-26.467 10.982-35.477s16.613-17.457 27.876-25.34c12.953-9.01 29.707-16.753 50.263-23.229s43.786-9.714 69.692-9.714c23.09 0 42.801 2.675 59.132 8.025 16.332 5.349 29.848 13.092 40.548 23.228 14.643 13.515 24.217 29.987 28.722 49.414 4.505 19.428 6.758 42.657 6.758 69.687v234.823c0 13.515 1.971 23.51 5.913 29.986s10.7 9.714 20.274 9.714c7.884 0 14.783-1.689 20.696-5.068 5.914-3.379 11.686-7.602 17.318-12.67l9.292 14.359c-11.826 9.01-23.09 16.472-33.79 22.384-10.7 5.913-25.061 8.87-43.082 8.87-29.285 0-48.714-7.603-58.288-22.807s-14.361-32.661-14.361-52.37c-18.021 29.845-38.436 49.836-61.244 59.972-22.808 10.137-46.602 15.205-71.381 15.205zm37.169-33.788c16.895 0 33.508-4.927 49.84-14.782 16.332-9.854 31.537-26.326 45.616-49.414v-165.558c-8.447 12.388-21.541 22.243-39.28 29.564-17.74 7.32-36.043 15.345-54.909 24.073-18.866 8.729-35.057 20.554-48.573 35.477s-20.274 36.181-20.274 63.774c0 25.903 6.476 45.19 19.429 57.861 12.953 12.67 29.003 19.005 48.151 19.005z"/><path d="m837.334 0c15.205 0 28.58 3.097 40.125 9.292 11.545 6.194 20.556 14.218 27.032 24.073 6.477 9.855 9.715 20.976 9.715 33.365 0 14.078-4.365 26.467-13.094 37.166-8.729 10.7-20.415 16.049-35.057 16.049-11.826 0-22.245-3.801-31.256-11.403-9.01-7.602-13.516-18.442-13.516-32.52 0-10.7 2.957-19.85 8.87-27.453 5.913-7.602 12.531-13.655 19.852-18.16-3.942-5.632-9.856-8.447-17.74-8.447-23.653 0-44.208 8.869-61.667 26.607-17.458 17.739-31.115 38.997-40.97 63.774-9.855 24.778-14.783 47.584-14.783 68.42v179.073c0 27.593 8.025 46.036 24.075 55.327 16.05 9.292 37.873 13.937 65.468 13.937v17.739c-12.952-.563-31.255-1.267-54.908-2.112s-48.714-1.267-75.183-1.267c-19.148 0-38.155.422-57.021 1.267s-33.086 1.549-42.66 2.112v-17.739c23.09 0 39.563-4.223 49.418-12.67 9.856-8.447 14.783-24.496 14.783-48.147v-264.387c0-25.34-4.505-44.064-13.516-56.171-9.01-12.107-25.905-18.161-50.685-18.161v-17.738c18.022 1.689 35.48 2.534 52.375 2.534 16.332 0 31.96-.986 46.884-2.957 14.923-1.971 28.58-4.927 40.97-8.869v105.586c6.195-16.331 15.065-32.802 26.609-49.414 11.545-16.612 25.484-30.55 41.816-41.812 16.331-11.263 34.353-16.894 54.064-16.894z"/><path d="m1114.58 0c22.526 0 41.674 3.66 57.443 10.981 15.768 7.321 27.313 14.078 34.635 20.272 18.584 15.205 29.847 5.068 33.79-30.408h19.429c-1.127 15.767-1.971 34.491-2.534 56.171-.564 21.681-.845 50.822-.845 87.425h-19.429c-3.379-20.835-9.152-41.108-17.318-60.817s-20.133-35.899-35.902-48.57c-15.768-12.67-36.324-19.005-61.666-19.005-19.711 0-36.184 5.49-49.418 16.471-13.235 10.981-19.852 27.171-19.852 48.57 0 16.894 5.069 31.394 15.206 43.501s23.371 23.37 39.703 33.788c16.332 10.417 34.071 21.821 53.219 34.209 32.101 20.836 59.414 41.953 81.941 63.352 22.526 21.399 33.79 49.555 33.79 84.468 0 25.904-6.758 47.584-20.274 65.041s-31.115 30.69-52.797 39.7-45.476 13.515-71.381 13.515c-12.39 0-24.076-.985-35.058-2.956-10.981-1.971-21.541-4.927-31.678-8.869-5.631-2.816-11.404-6.195-17.317-10.136-5.913-3.942-11.686-8.166-17.317-12.671-5.632-4.505-10.701-4.364-15.206.423-4.505 4.786-7.884 14.219-10.137 28.297h-19.429c1.126-18.02 1.971-39.982 2.534-65.886s.845-60.254.845-103.052h19.429c3.942 31.535 9.574 59.128 16.895 82.78 7.321 23.651 18.866 42.093 34.635 55.327 15.768 13.233 37.732 19.85 65.89 19.85 16.895 0 33.649-5.913 50.263-17.739 16.613-11.825 24.92-32.661 24.92-62.506 0-24.778-9.011-45.05-27.032-60.818-18.021-15.767-40.83-32.379-68.425-49.836-20.274-12.952-39.281-25.904-57.02-38.856-17.74-12.952-32.101-27.593-43.083-43.924-10.981-16.33-16.472-36.039-16.472-59.128 0-25.34 5.772-46.035 17.317-62.084s26.891-27.875 46.039-35.477c19.148-7.602 39.703-11.403 61.667-11.403z"/><path d="m1826.6 0c19.711 0 36.888 2.816 51.53 8.447s26.75 13.515 36.324 23.651c10.7 11.263 18.021 25.904 21.964 43.924 3.942 18.02 5.913 40.263 5.913 66.73v225.531c0 23.651 4.928 39.7 14.783 48.147s26.328 12.67 49.418 12.67v17.739c-9.574-.563-24.216-1.267-43.927-2.112s-38.859-1.267-57.443-1.267c-18.585 0-36.747.422-54.486 1.267-17.74.845-31.115 1.549-40.126 2.112v-17.739c20.274 0 34.635-4.223 43.082-12.67 8.448-8.447 12.671-24.496 12.671-48.147v-244.114c0-17.457-1.126-33.506-3.379-48.147-2.252-14.641-7.884-26.467-16.895-35.477-9.01-9.01-23.653-13.515-43.927-13.515-21.963 0-41.533 6.757-58.71 20.272-17.176 13.515-30.692 31.958-40.548 55.327-9.855 23.37-14.783 49.414-14.783 78.134v187.52c0 23.651 4.224 39.7 12.671 48.147 8.448 8.447 22.809 12.67 43.083 12.67v17.739c-9.011-.563-22.386-1.267-40.126-2.112s-35.902-1.267-54.486-1.267c-18.585 0-37.732.422-57.443 1.267s-34.353 1.549-43.927 2.112v-17.739c23.09 0 39.562-4.223 49.418-12.67 9.855-8.447 14.783-24.496 14.783-48.147v-264.387c0-25.34-4.506-44.064-13.516-56.171-9.011-12.107-25.906-18.161-50.685-18.161v-17.738c18.021 1.689 35.479 2.534 52.374 2.534 16.332 0 31.96-.986 46.884-2.957s28.581-4.927 40.97-8.869v99.673c14.643-36.603 34.635-62.788 59.977-78.556 25.343-15.767 51.53-23.651 78.562-23.651zm254.27 0c19.711 0 36.887 2.816 51.53 8.447 14.642 5.631 26.75 13.515 36.324 23.651 10.7 11.263 18.021 25.904 21.963 43.924 3.943 18.02 5.914 40.263 5.914 66.73v225.531c0 23.651 4.927 39.7 14.783 48.147 9.855 8.447 26.328 12.67 49.418 12.67v17.739c-9.574-.563-24.217-1.267-43.927-2.112-19.711-.845-38.859-1.267-57.443-1.267-18.585 0-36.747.422-54.487 1.267-17.739.845-31.115 1.549-40.125 2.112v-17.739c20.274 0 34.634-4.223 43.082-12.67 8.447-8.447 12.671-24.496 12.671-48.147v-244.114c0-17.457-1.126-33.506-3.379-48.147s-7.884-26.467-16.895-35.477-23.653-13.515-43.927-13.515c-32.664 0-59.836 14.641-81.518 43.924-21.682 29.282-32.523 65.604-32.523 108.964l-2.534-78.556c15.205-38.855 35.761-65.463 61.666-79.823 25.906-14.359 52.375-21.539 79.407-21.539z"/><path d="m2516.09 0c49.559 0 88.277 15.064 116.153 45.191 27.877 30.127 41.815 77.007 41.815 140.64h-298.196l-.845-16.049h217.946c1.126-27.593-1.127-53.075-6.758-76.444-5.632-23.37-14.502-42.094-26.61-56.172s-27.736-21.117-46.884-21.117c-25.905 0-48.854 12.952-68.847 38.856-19.992 25.903-31.96 67.011-35.902 123.324l2.535 3.378c-1.127 8.447-1.972 17.739-2.535 27.875s-.844 20.273-.844 30.409c0 38.292 6.194 71.235 18.584 98.828s28.581 48.569 48.573 62.929c19.993 14.36 40.689 21.54 62.089 21.54 25.343 0 48.714-6.195 70.115-18.583 21.4-12.389 39.421-34.351 54.063-65.886l16.895 6.758c-6.194 18.583-16.331 36.603-30.411 54.059-14.079 17.457-31.818 31.676-53.219 42.657-21.4 10.981-46.179 16.471-74.338 16.471-40.548 0-75.323-9.291-104.326-27.874s-51.248-44.346-66.736-77.289c-15.487-32.943-23.23-70.813-23.23-113.61 0-49.555 7.884-92.212 23.653-127.97 15.768-35.758 38.014-63.352 66.735-82.779 28.722-19.428 62.23-29.142 100.525-29.142z"/><path d="m2876.8 452.752c-36.605 0-63.215-9.151-79.828-27.453-16.614-18.301-24.921-42.656-24.921-73.065 0-23.651 5.773-43.22 17.318-58.706s26.328-28.156 44.349-38.011c18.022-9.854 37.028-18.301 57.021-25.34 19.992-7.039 38.999-13.937 57.02-20.695 18.022-6.757 32.805-14.36 44.35-22.806 11.545-8.447 17.317-19.147 17.317-32.098v-52.371c0-23.651-3.52-41.671-10.559-54.06-7.04-12.389-16.473-20.695-28.299-24.918-11.827-4.224-25.061-6.335-39.704-6.335-14.079 0-29.143 1.971-45.194 5.913-16.05 3.941-28.862 12.107-38.436 24.495 10.7 2.253 19.993 7.884 27.877 16.894s11.826 20.554 11.826 34.632-4.505 25.2-13.516 33.365c-9.01 8.166-20.555 12.248-34.634 12.248-16.332 0-28.299-5.209-35.902-15.626-7.603-10.418-11.404-22.103-11.404-35.055 0-14.641 3.66-26.467 10.981-35.477 7.322-9.01 16.614-17.457 27.877-25.34 12.953-9.01 29.707-16.753 50.263-23.229 20.555-6.476 43.786-9.714 69.692-9.714 23.09 0 42.8 2.675 59.132 8.025 16.332 5.349 29.848 13.092 40.548 23.228 14.642 13.515 24.216 29.987 28.722 49.414 4.505 19.428 6.758 42.657 6.758 69.687v234.823c0 13.515 1.971 23.51 5.913 29.986s10.7 9.714 20.274 9.714c7.884 0 14.783-1.689 20.696-5.068 5.914-3.379 11.686-7.602 17.318-12.67l9.292 14.359c-11.827 9.01-23.09 16.472-33.79 22.384-10.7 5.913-25.061 8.87-43.082 8.87-29.285 0-48.714-7.603-58.288-22.807s-14.361-32.661-14.361-52.37c-18.021 29.845-38.436 49.836-61.244 59.972-22.808 10.137-46.602 15.205-71.382 15.205zm37.169-33.788c16.895 0 33.509-4.927 49.841-14.782 16.332-9.854 31.537-26.326 45.616-49.414v-165.558c-8.447 12.388-21.541 22.243-39.281 29.564-17.739 7.32-36.042 15.345-54.908 24.073-18.867 8.729-35.058 20.554-48.574 35.477s-20.274 36.181-20.274 63.774c0 25.903 6.477 45.19 19.43 57.861 12.953 12.67 29.003 19.005 48.15 19.005z"/><path d="m142.41 872.919 6.25 22.248h15v-93.993h-78.25v19.999h57c.333 8.166-.75 15.79-3.25 22.873s-6.208 13.249-11.125 18.498c-4.917 5.25-10.958 9.375-18.125 12.375-7.167 2.999-15.417 4.499-24.75 4.499-10 0-18.792-1.958-26.375-5.874-7.583-3.917-13.958-9.166-19.125-15.749s-9.083-14.166-11.75-22.748c-2.667-8.583-4-17.541-4-26.873 0-9.5 1.167-18.791 3.5-27.873 2.333-9.083 5.958-17.166 10.875-24.248 4.917-7.083 11.25-12.791 19-17.124s17.042-6.5 27.875-6.5c6.667 0 12.958.792 18.875 2.375s11.208 3.958 15.875 7.125c4.667 3.166 8.583 7.207 11.75 12.124 3.167 4.916 5.333 10.791 6.5 17.623h23.75c-1.667-10.499-4.792-19.457-9.375-26.873s-10.25-13.54-17-18.373-14.417-8.375-23-10.624c-8.583-2.25-17.708-3.375-27.375-3.375-14.167 0-26.542 2.625-37.125 7.874-10.583 5.25-19.417 12.291-26.5 21.124-7.083 8.832-12.417 19.123-16 30.872s-5.375 24.123-5.375 37.122c0 11.666 1.917 22.915 5.75 33.748 3.833 10.832 9.417 20.415 16.75 28.748 7.333 8.332 16.25 14.957 26.75 19.873 10.5 4.917 22.417 7.375 35.75 7.375 10.5 0 20.917-2.042 31.25-6.125s19-10.791 26-20.123z"/><path d="m273.91 716.68h23.75v178.486h-23.75z"/><path d="m442.66 821.423 30.25-83.244h.5l29.75 83.244zm17.75-104.743-69.5 178.487h24.25l20-53.746h75.5l19.5 53.746h26.25l-69.75-178.487z"/><path d="m647.91 716.68v178.487h22.5v-143.239h.5l93.25 143.239h26v-178.487h-22.5v144.74h-.5l-94-144.74z"/><path d="m902.66 716.68v178.487h22.5v-143.239h.5l93.25 143.239h26v-178.487h-22.5v144.74h-.5l-94-144.74z"/><path d="m1188.41 821.423 30.25-83.244h.5l29.75 83.244zm17.75-104.743-69.5 178.487h24.25l20-53.746h75.5l19.5 53.746h26.25l-69.75-178.487z"/><path d="m1626.92 768.927h22.5c-.334-9.833-2.209-18.291-5.625-25.374-3.417-7.082-8.084-12.957-14-17.623-5.917-4.667-12.792-8.083-20.625-10.249-7.834-2.167-16.334-3.25-25.5-3.25-8.167 0-16.125 1.041-23.875 3.125-7.75 2.083-14.667 5.249-20.75 9.499-6.084 4.25-10.959 9.666-14.625 16.249-3.667 6.582-5.5 14.374-5.5 23.373 0 8.166 1.625 14.957 4.875 20.373 3.25 5.417 7.583 9.833 13 13.249 5.416 3.417 11.541 6.167 18.375 8.25 6.833 2.083 13.791 3.916 20.875 5.499 7.083 1.583 14.041 3.125 20.875 4.625 6.833 1.5 12.958 3.458 18.375 5.874 5.416 2.417 9.75 5.542 13 9.375s4.875 8.832 4.875 14.999c0 6.499-1.334 11.832-4 15.998-2.667 4.167-6.167 7.458-10.5 9.875-4.334 2.416-9.209 4.124-14.625 5.124-5.417 1-10.792 1.5-16.125 1.5-6.667 0-13.167-.833-19.5-2.5-6.334-1.666-11.875-4.249-16.625-7.749s-8.584-7.958-11.5-13.374c-2.917-5.416-4.375-11.874-4.375-19.374h-22.5c0 10.833 1.958 20.207 5.875 28.123 3.916 7.916 9.25 14.416 16 19.499s14.583 8.874 23.5 11.374c8.916 2.5 18.375 3.75 28.375 3.75 8.166 0 16.375-.959 24.625-2.875 8.25-1.917 15.708-5 22.375-9.249 6.666-4.25 12.125-9.75 16.375-16.499 4.25-6.75 6.375-14.874 6.375-24.373 0-8.833-1.625-16.166-4.875-21.999s-7.584-10.666-13-14.499c-5.417-3.833-11.542-6.874-18.375-9.124-6.834-2.25-13.792-4.208-20.875-5.874-7.084-1.667-14.042-3.209-20.875-4.625-6.834-1.417-12.959-3.208-18.375-5.375-5.417-2.166-9.75-4.958-13-8.374s-4.875-7.874-4.875-13.374c0-5.833 1.125-10.708 3.375-14.624s5.25-7.041 9-9.374 8.041-4 12.875-5c4.833-1 9.75-1.5 14.75-1.5 12.333 0 22.458 2.875 30.375 8.625 7.916 5.749 12.541 15.04 13.875 27.873z"/><path d="m1796.17 736.679v158.488h23.75v-158.488h59.5v-19.999h-142.75v19.999z"/><path d="m1969.17 716.68v178.487h124v-19.999h-100.25v-61.745h92.75v-19.998h-92.75v-56.746h99.5v-19.999z"/><path d="m2191.92 716.68v178.487h23.75v-81.744h82v-19.998h-82v-56.746h93.5v-19.999z"/><path d="m2422.42 821.423 30.25-83.244h.5l29.75 83.244zm17.75-104.743-69.5 178.487h24.25l20-53.746h75.5l19.5 53.746h26.25l-69.75-178.487z"/><path d="m2623.42 716.68v178.487h22.5v-143.239h.5l93.25 143.239h26v-178.487h-22.5v144.74h-.5l-94-144.74z"/><path d="m2875.17 716.68h23.75v178.486h-23.75z"/><path d="m3008.67 716.68v178.487h22.5v-143.239h.5l93.25 143.239h26v-178.487h-22.5v144.74h-.5l-94-144.74z"/><path d="m3260.42 716.68h23.75v178.486h-23.75z"/></g></svg>