<?xml version="1.0" encoding="UTF-8" standalone="no"?><!DOCTYPE svg PUBLIC "-//W3C//DTD SVG 1.1//EN" "http://www.w3.org/Graphics/SVG/1.1/DTD/svg11.dtd"><svg width="100%" height="100%" viewBox="0 0 3285 900" version="1.1" xmlns="http://www.w3.org/2000/svg" xmlns:xlink="http://www.w3.org/1999/xlink" xml:space="preserve" xmlns:serif="http://www.serif.com/" style="fill-rule:evenodd;clip-rule:evenodd;stroke-linejoin:round;stroke-miterlimit:2;"><path d="M233.452,452.752c-36.606,-0 -63.216,-9.151 -79.829,-27.453c-16.614,-18.301 -24.92,-42.656 -24.92,-73.065c-0,-23.651 5.772,-43.22 17.317,-58.706c11.545,-15.486 26.328,-28.156 44.349,-38.011c18.022,-9.854 37.029,-18.301 57.021,-25.34c19.992,-7.039 38.999,-13.937 57.021,-20.695c18.021,-6.757 32.804,-14.36 44.349,-22.806c11.545,-8.447 17.317,-19.147 17.317,-32.098l0,-52.371c0,-23.651 -3.519,-41.671 -10.559,-54.06c-7.04,-12.389 -16.473,-20.695 -28.299,-24.918c-11.827,-4.224 -25.061,-6.335 -39.703,-6.335c-14.08,-0 -29.144,1.971 -45.194,5.913c-16.051,3.941 -28.863,12.107 -38.437,24.495c10.701,2.253 19.993,7.884 27.877,16.894c7.884,9.01 11.827,20.554 11.827,34.632c-0,14.078 -4.506,25.2 -13.516,33.365c-9.011,8.166 -20.556,12.248 -34.635,12.248c-16.332,0 -28.299,-5.209 -35.902,-15.626c-7.603,-10.418 -11.404,-22.103 -11.404,-35.055c-0,-14.641 3.661,-26.467 10.982,-35.477c7.321,-9.01 16.613,-17.457 27.876,-25.34c12.953,-9.01 29.707,-16.753 50.263,-23.229c20.556,-6.476 43.786,-9.714 69.692,-9.714c23.09,0 42.801,2.675 59.132,8.025c16.332,5.349 29.848,13.092 40.548,23.228c14.643,13.515 24.217,29.987 28.722,49.414c4.505,19.428 6.758,42.657 6.758,69.687l-0,234.823c-0,13.515 1.971,23.51 5.913,29.986c3.942,6.476 10.7,9.714 20.274,9.714c7.884,-0 14.783,-1.689 20.696,-5.068c5.914,-3.379 11.686,-7.602 17.318,-12.67l9.292,14.359c-11.826,9.01 -23.09,16.472 -33.79,22.384c-10.7,5.913 -25.061,8.87 -43.082,8.87c-29.285,-0 -48.714,-7.603 -58.288,-22.807c-9.574,-15.204 -14.361,-32.661 -14.361,-52.37c-18.021,29.845 -38.436,49.836 -61.244,59.972c-22.808,10.137 -46.602,15.205 -71.381,15.205Zm37.169,-33.788c16.895,0 33.508,-4.927 49.84,-14.782c16.332,-9.854 31.537,-26.326 45.616,-49.414l0,-165.558c-8.447,12.388 -21.541,22.243 -39.28,29.564c-17.74,7.32 -36.043,15.345 -54.909,24.073c-18.866,8.729 -35.057,20.554 -48.573,35.477c-13.516,14.923 -20.274,36.181 -20.274,63.774c-0,25.903 6.476,45.19 19.429,57.861c12.953,12.67 29.003,19.005 48.151,19.005Z" style="fill-rule:nonzero;"/><path d="M837.334,0c15.205,0 28.58,3.097 40.125,9.292c11.545,6.194 20.556,14.218 27.032,24.073c6.477,9.855 9.715,20.976 9.715,33.365c-0,14.078 -4.365,26.467 -13.094,37.166c-8.729,10.7 -20.415,16.049 -35.057,16.049c-11.826,0 -22.245,-3.801 -31.256,-11.403c-9.01,-7.602 -13.516,-18.442 -13.516,-32.52c0,-10.7 2.957,-19.85 8.87,-27.453c5.913,-7.602 12.531,-13.655 19.852,-18.16c-3.942,-5.632 -9.856,-8.447 -17.74,-8.447c-23.653,-0 -44.208,8.869 -61.667,26.607c-17.458,17.739 -31.115,38.997 -40.97,63.774c-9.855,24.778 -14.783,47.584 -14.783,68.42l-0,179.073c-0,27.593 8.025,46.036 24.075,55.327c16.05,9.292 37.873,13.937 65.468,13.937l0,17.739c-12.952,-0.563 -31.255,-1.267 -54.908,-2.112c-23.653,-0.845 -48.714,-1.267 -75.183,-1.267c-19.148,0 -38.155,0.422 -57.021,1.267c-18.866,0.845 -33.086,1.549 -42.66,2.112l0,-17.739c23.09,0 39.563,-4.223 49.418,-12.67c9.856,-8.447 14.783,-24.496 14.783,-48.147l0,-264.387c0,-25.34 -4.505,-44.064 -13.516,-56.171c-9.01,-12.107 -25.905,-18.161 -50.685,-18.161l0,-17.738c18.022,1.689 35.48,2.534 52.375,2.534c16.332,-0 31.96,-0.986 46.884,-2.957c14.923,-1.971 28.58,-4.927 40.97,-8.869l-0,105.586c6.195,-16.331 15.065,-32.802 26.609,-49.414c11.545,-16.612 25.484,-30.55 41.816,-41.812c16.331,-11.263 34.353,-16.894 54.064,-16.894Z" style="fill-rule:nonzero;"/><path d="M1114.58,0c22.526,0 41.674,3.66 57.443,10.981c15.768,7.321 27.313,14.078 34.635,20.272c18.584,15.205 29.847,5.068 33.79,-30.408l19.429,-0c-1.127,15.767 -1.971,34.491 -2.534,56.171c-0.564,21.681 -0.845,50.822 -0.845,87.425l-19.429,0c-3.379,-20.835 -9.152,-41.108 -17.318,-60.817c-8.166,-19.709 -20.133,-35.899 -35.902,-48.57c-15.768,-12.67 -36.324,-19.005 -61.666,-19.005c-19.711,0 -36.184,5.49 -49.418,16.471c-13.235,10.981 -19.852,27.171 -19.852,48.57c0,16.894 5.069,31.394 15.206,43.501c10.137,12.107 23.371,23.37 39.703,33.788c16.332,10.417 34.071,21.821 53.219,34.209c32.101,20.836 59.414,41.953 81.941,63.352c22.526,21.399 33.79,49.555 33.79,84.468c-0,25.904 -6.758,47.584 -20.274,65.041c-13.516,17.457 -31.115,30.69 -52.797,39.7c-21.682,9.01 -45.476,13.515 -71.381,13.515c-12.39,0 -24.076,-0.985 -35.058,-2.956c-10.981,-1.971 -21.541,-4.927 -31.678,-8.869c-5.631,-2.816 -11.404,-6.195 -17.317,-10.136c-5.913,-3.942 -11.686,-8.166 -17.317,-12.671c-5.632,-4.505 -10.701,-4.364 -15.206,0.423c-4.505,4.786 -7.884,14.219 -10.137,28.297l-19.429,-0c1.126,-18.02 1.971,-39.982 2.534,-65.886c0.563,-25.904 0.845,-60.254 0.845,-103.052l19.429,0c3.942,31.535 9.574,59.128 16.895,82.78c7.321,23.651 18.866,42.093 34.635,55.327c15.768,13.233 37.732,19.85 65.89,19.85c16.895,-0 33.649,-5.913 50.263,-17.739c16.613,-11.825 24.92,-32.661 24.92,-62.506c0,-24.778 -9.011,-45.05 -27.032,-60.818c-18.021,-15.767 -40.83,-32.379 -68.425,-49.836c-20.274,-12.952 -39.281,-25.904 -57.02,-38.856c-17.74,-12.952 -32.101,-27.593 -43.083,-43.924c-10.981,-16.33 -16.472,-36.039 -16.472,-59.128c-0,-25.34 5.772,-46.035 17.317,-62.084c11.545,-16.049 26.891,-27.875 46.039,-35.477c19.148,-7.602 39.703,-11.403 61.667,-11.403Z" style="fill-rule:nonzero;"/><path d="M1826.6,0c19.711,0 36.888,2.816 51.53,8.447c14.642,5.631 26.75,13.515 36.324,23.651c10.7,11.263 18.021,25.904 21.964,43.924c3.942,18.02 5.913,40.263 5.913,66.73l-0,225.531c-0,23.651 4.928,39.7 14.783,48.147c9.855,8.447 26.328,12.67 49.418,12.67l-0,17.739c-9.574,-0.563 -24.216,-1.267 -43.927,-2.112c-19.711,-0.845 -38.859,-1.267 -57.443,-1.267c-18.585,0 -36.747,0.422 -54.486,1.267c-17.74,0.845 -31.115,1.549 -40.126,2.112l-0,-17.739c20.274,0 34.635,-4.223 43.082,-12.67c8.448,-8.447 12.671,-24.496 12.671,-48.147l0,-244.114c0,-17.457 -1.126,-33.506 -3.379,-48.147c-2.252,-14.641 -7.884,-26.467 -16.895,-35.477c-9.01,-9.01 -23.653,-13.515 -43.927,-13.515c-21.963,-0 -41.533,6.757 -58.71,20.272c-17.176,13.515 -30.692,31.958 -40.548,55.327c-9.855,23.37 -14.783,49.414 -14.783,78.134l0,187.52c0,23.651 4.224,39.7 12.671,48.147c8.448,8.447 22.809,12.67 43.083,12.67l-0,17.739c-9.011,-0.563 -22.386,-1.267 -40.126,-2.112c-17.74,-0.845 -35.902,-1.267 -54.486,-1.267c-18.585,0 -37.732,0.422 -57.443,1.267c-19.711,0.845 -34.353,1.549 -43.927,2.112l-0,-17.739c23.09,0 39.562,-4.223 49.418,-12.67c9.855,-8.447 14.783,-24.496 14.783,-48.147l-0,-264.387c-0,-25.34 -4.506,-44.064 -13.516,-56.171c-9.011,-12.107 -25.906,-18.161 -50.685,-18.161l-0,-17.738c18.021,1.689 35.479,2.534 52.374,2.534c16.332,-0 31.96,-0.986 46.884,-2.957c14.924,-1.971 28.581,-4.927 40.97,-8.869l0,99.673c14.643,-36.603 34.635,-62.788 59.977,-78.556c25.343,-15.767 51.53,-23.651 78.562,-23.651Zm254.27,0c19.711,0 36.887,2.816 51.53,8.447c14.642,5.631 26.75,13.515 36.324,23.651c10.7,11.263 18.021,25.904 21.963,43.924c3.943,18.02 5.914,40.263 5.914,66.73l-0,225.531c-0,23.651 4.927,39.7 14.783,48.147c9.855,8.447 26.328,12.67 49.418,12.67l-0,17.739c-9.574,-0.563 -24.217,-1.267 -43.927,-2.112c-19.711,-0.845 -38.859,-1.267 -57.443,-1.267c-18.585,0 -36.747,0.422 -54.487,1.267c-17.739,0.845 -31.115,1.549 -40.125,2.112l-0,-17.739c20.274,0 34.634,-4.223 43.082,-12.67c8.447,-8.447 12.671,-24.496 12.671,-48.147l0,-244.114c0,-17.457 -1.126,-33.506 -3.379,-48.147c-2.253,-14.641 -7.884,-26.467 -16.895,-35.477c-9.011,-9.01 -23.653,-13.515 -43.927,-13.515c-32.664,-0 -59.836,14.641 -81.518,43.924c-21.682,29.282 -32.523,65.604 -32.523,108.964l-2.534,-78.556c15.205,-38.855 35.761,-65.463 61.666,-79.823c25.906,-14.359 52.375,-21.539 79.407,-21.539Z" style="fill-rule:nonzero;"/><path d="M2516.09,0c49.559,0 88.277,15.064 116.153,45.191c27.877,30.127 41.815,77.007 41.815,140.64l-298.196,-0l-0.845,-16.049l217.946,-0c1.126,-27.593 -1.127,-53.075 -6.758,-76.444c-5.632,-23.37 -14.502,-42.094 -26.61,-56.172c-12.108,-14.078 -27.736,-21.117 -46.884,-21.117c-25.905,0 -48.854,12.952 -68.847,38.856c-19.992,25.903 -31.96,67.011 -35.902,123.324l2.535,3.378c-1.127,8.447 -1.972,17.739 -2.535,27.875c-0.563,10.136 -0.844,20.273 -0.844,30.409c-0,38.292 6.194,71.235 18.584,98.828c12.39,27.593 28.581,48.569 48.573,62.929c19.993,14.36 40.689,21.54 62.089,21.54c25.343,-0 48.714,-6.195 70.115,-18.583c21.4,-12.389 39.421,-34.351 54.063,-65.886l16.895,6.758c-6.194,18.583 -16.331,36.603 -30.411,54.059c-14.079,17.457 -31.818,31.676 -53.219,42.657c-21.4,10.981 -46.179,16.471 -74.338,16.471c-40.548,0 -75.323,-9.291 -104.326,-27.874c-29.003,-18.583 -51.248,-44.346 -66.736,-77.289c-15.487,-32.943 -23.23,-70.813 -23.23,-113.61c-0,-49.555 7.884,-92.212 23.653,-127.97c15.768,-35.758 38.014,-63.352 66.735,-82.779c28.722,-19.428 62.23,-29.142 100.525,-29.142Z" style="fill-rule:nonzero;"/><path d="M2876.8,452.752c-36.605,-0 -63.215,-9.151 -79.828,-27.453c-16.614,-18.301 -24.921,-42.656 -24.921,-73.065c0,-23.651 5.773,-43.22 17.318,-58.706c11.545,-15.486 26.328,-28.156 44.349,-38.011c18.022,-9.854 37.028,-18.301 57.021,-25.34c19.992,-7.039 38.999,-13.937 57.02,-20.695c18.022,-6.757 32.805,-14.36 44.35,-22.806c11.545,-8.447 17.317,-19.147 17.317,-32.098l0,-52.371c0,-23.651 -3.52,-41.671 -10.559,-54.06c-7.04,-12.389 -16.473,-20.695 -28.299,-24.918c-11.827,-4.224 -25.061,-6.335 -39.704,-6.335c-14.079,-0 -29.143,1.971 -45.194,5.913c-16.05,3.941 -28.862,12.107 -38.436,24.495c10.7,2.253 19.993,7.884 27.877,16.894c7.884,9.01 11.826,20.554 11.826,34.632c0,14.078 -4.505,25.2 -13.516,33.365c-9.01,8.166 -20.555,12.248 -34.634,12.248c-16.332,0 -28.299,-5.209 -35.902,-15.626c-7.603,-10.418 -11.404,-22.103 -11.404,-35.055c-0,-14.641 3.66,-26.467 10.981,-35.477c7.322,-9.01 16.614,-17.457 27.877,-25.34c12.953,-9.01 29.707,-16.753 50.263,-23.229c20.555,-6.476 43.786,-9.714 69.692,-9.714c23.09,0 42.8,2.675 59.132,8.025c16.332,5.349 29.848,13.092 40.548,23.228c14.642,13.515 24.216,29.987 28.722,49.414c4.505,19.428 6.758,42.657 6.758,69.687l-0,234.823c-0,13.515 1.971,23.51 5.913,29.986c3.942,6.476 10.7,9.714 20.274,9.714c7.884,-0 14.783,-1.689 20.696,-5.068c5.914,-3.379 11.686,-7.602 17.318,-12.67l9.292,14.359c-11.827,9.01 -23.09,16.472 -33.79,22.384c-10.7,5.913 -25.061,8.87 -43.082,8.87c-29.285,-0 -48.714,-7.603 -58.288,-22.807c-9.574,-15.204 -14.361,-32.661 -14.361,-52.37c-18.021,29.845 -38.436,49.836 -61.244,59.972c-22.808,10.137 -46.602,15.205 -71.382,15.205Zm37.169,-33.788c16.895,0 33.509,-4.927 49.841,-14.782c16.332,-9.854 31.537,-26.326 45.616,-49.414l0,-165.558c-8.447,12.388 -21.541,22.243 -39.281,29.564c-17.739,7.32 -36.042,15.345 -54.908,24.073c-18.867,8.729 -35.058,20.554 -48.574,35.477c-13.516,14.923 -20.274,36.181 -20.274,63.774c0,25.903 6.477,45.19 19.43,57.861c12.953,12.67 29.003,19.005 48.15,19.005Z" style="fill-rule:nonzero;"/><path d="M142.41,872.919l6.25,22.248l15,-0l-0,-93.993l-78.25,0l-0,19.999l57,-0c0.333,8.166 -0.75,15.79 -3.25,22.873c-2.5,7.083 -6.208,13.249 -11.125,18.498c-4.917,5.25 -10.958,9.375 -18.125,12.375c-7.167,2.999 -15.417,4.499 -24.75,4.499c-10,0 -18.792,-1.958 -26.375,-5.874c-7.583,-3.917 -13.958,-9.166 -19.125,-15.749c-5.167,-6.583 -9.083,-14.166 -11.75,-22.748c-2.667,-8.583 -4,-17.541 -4,-26.873c-0,-9.5 1.167,-18.791 3.5,-27.873c2.333,-9.083 5.958,-17.166 10.875,-24.248c4.917,-7.083 11.25,-12.791 19,-17.124c7.75,-4.333 17.042,-6.5 27.875,-6.5c6.667,0 12.958,0.792 18.875,2.375c5.917,1.583 11.208,3.958 15.875,7.125c4.667,3.166 8.583,7.207 11.75,12.124c3.167,4.916 5.333,10.791 6.5,17.623l23.75,0c-1.667,-10.499 -4.792,-19.457 -9.375,-26.873c-4.583,-7.416 -10.25,-13.54 -17,-18.373c-6.75,-4.833 -14.417,-8.375 -23,-10.624c-8.583,-2.25 -17.708,-3.375 -27.375,-3.375c-14.167,-0 -26.542,2.625 -37.125,7.874c-10.583,5.25 -19.417,12.291 -26.5,21.124c-7.083,8.832 -12.417,19.123 -16,30.872c-3.583,11.749 -5.375,24.123 -5.375,37.122c-0,11.666 1.917,22.915 5.75,33.748c3.833,10.832 9.417,20.415 16.75,28.748c7.333,8.332 16.25,14.957 26.75,19.873c10.5,4.917 22.417,7.375 35.75,7.375c10.5,-0 20.917,-2.042 31.25,-6.125c10.333,-4.083 19,-10.791 26,-20.123Z" style="fill-rule:nonzero;"/><rect x="273.91" y="716.68" width="23.75" height="178.486" style="fill-rule:nonzero;"/><path d="M442.66,821.423l30.25,-83.244l0.5,-0l29.75,83.244l-60.5,-0Zm17.75,-104.743l-69.5,178.487l24.25,-0l20,-53.746l75.5,0l19.5,53.746l26.25,-0l-69.75,-178.487l-26.25,0Z" style="fill-rule:nonzero;"/><path d="M647.91,716.68l-0,178.487l22.5,-0l-0,-143.239l0.5,-0l93.25,143.239l26,-0l-0,-178.487l-22.5,0l-0,144.74l-0.5,-0l-94,-144.74l-25.25,0Z" style="fill-rule:nonzero;"/><path d="M902.66,716.68l-0,178.487l22.5,-0l-0,-143.239l0.5,-0l93.25,143.239l26,-0l-0,-178.487l-22.5,0l-0,144.74l-0.5,-0l-94,-144.74l-25.25,0Z" style="fill-rule:nonzero;"/><path d="M1188.41,821.423l30.25,-83.244l0.5,-0l29.75,83.244l-60.5,-0Zm17.75,-104.743l-69.5,178.487l24.25,-0l20,-53.746l75.5,0l19.5,53.746l26.25,-0l-69.75,-178.487l-26.25,0Z" style="fill-rule:nonzero;"/><path d="M1626.92,768.927l22.5,-0c-0.334,-9.833 -2.209,-18.291 -5.625,-25.374c-3.417,-7.082 -8.084,-12.957 -14,-17.623c-5.917,-4.667 -12.792,-8.083 -20.625,-10.249c-7.834,-2.167 -16.334,-3.25 -25.5,-3.25c-8.167,-0 -16.125,1.041 -23.875,3.125c-7.75,2.083 -14.667,5.249 -20.75,9.499c-6.084,4.25 -10.959,9.666 -14.625,16.249c-3.667,6.582 -5.5,14.374 -5.5,23.373c-0,8.166 1.625,14.957 4.875,20.373c3.25,5.417 7.583,9.833 13,13.249c5.416,3.417 11.541,6.167 18.375,8.25c6.833,2.083 13.791,3.916 20.875,5.499c7.083,1.583 14.041,3.125 20.875,4.625c6.833,1.5 12.958,3.458 18.375,5.874c5.416,2.417 9.75,5.542 13,9.375c3.25,3.833 4.875,8.832 4.875,14.999c-0,6.499 -1.334,11.832 -4,15.998c-2.667,4.167 -6.167,7.458 -10.5,9.875c-4.334,2.416 -9.209,4.124 -14.625,5.124c-5.417,1 -10.792,1.5 -16.125,1.5c-6.667,0 -13.167,-0.833 -19.5,-2.5c-6.334,-1.666 -11.875,-4.249 -16.625,-7.749c-4.75,-3.5 -8.584,-7.958 -11.5,-13.374c-2.917,-5.416 -4.375,-11.874 -4.375,-19.374l-22.5,0c-0,10.833 1.958,20.207 5.875,28.123c3.916,7.916 9.25,14.416 16,19.499c6.75,5.083 14.583,8.874 23.5,11.374c8.916,2.5 18.375,3.75 28.375,3.75c8.166,-0 16.375,-0.959 24.625,-2.875c8.25,-1.917 15.708,-5 22.375,-9.249c6.666,-4.25 12.125,-9.75 16.375,-16.499c4.25,-6.75 6.375,-14.874 6.375,-24.373c-0,-8.833 -1.625,-16.166 -4.875,-21.999c-3.25,-5.833 -7.584,-10.666 -13,-14.499c-5.417,-3.833 -11.542,-6.874 -18.375,-9.124c-6.834,-2.25 -13.792,-4.208 -20.875,-5.874c-7.084,-1.667 -14.042,-3.209 -20.875,-4.625c-6.834,-1.417 -12.959,-3.208 -18.375,-5.375c-5.417,-2.166 -9.75,-4.958 -13,-8.374c-3.25,-3.416 -4.875,-7.874 -4.875,-13.374c-0,-5.833 1.125,-10.708 3.375,-14.624c2.25,-3.916 5.25,-7.041 9,-9.374c3.75,-2.333 8.041,-4 12.875,-5c4.833,-1 9.75,-1.5 14.75,-1.5c12.333,0 22.458,2.875 30.375,8.625c7.916,5.749 12.541,15.04 13.875,27.873Z" style="fill-rule:nonzero;"/><path d="M1796.17,736.679l-0,158.488l23.75,-0l-0,-158.488l59.5,-0l-0,-19.999l-142.75,0l-0,19.999l59.5,-0Z" style="fill-rule:nonzero;"/><path d="M1969.17,716.68l-0,178.487l124,-0l-0,-19.999l-100.25,0l-0,-61.745l92.75,0l-0,-19.998l-92.75,-0l-0,-56.746l99.5,-0l-0,-19.999l-123.25,0Z" style="fill-rule:nonzero;"/><path d="M2191.92,716.68l-0,178.487l23.75,-0l-0,-81.744l82,0l-0,-19.998l-82,-0l-0,-56.746l93.5,-0l-0,-19.999l-117.25,0Z" style="fill-rule:nonzero;"/><path d="M2422.42,821.423l30.25,-83.244l0.5,-0l29.75,83.244l-60.5,-0Zm17.75,-104.743l-69.5,178.487l24.25,-0l20,-53.746l75.5,0l19.5,53.746l26.25,-0l-69.75,-178.487l-26.25,0Z" style="fill-rule:nonzero;"/><path d="M2623.42,716.68l-0,178.487l22.5,-0l-0,-143.239l0.5,-0l93.25,143.239l26,-0l-0,-178.487l-22.5,0l-0,144.74l-0.5,-0l-94,-144.74l-25.25,0Z" style="fill-rule:nonzero;"/><rect x="2875.17" y="716.68" width="23.75" height="178.486" style="fill-rule:nonzero;"/><path d="M3008.67,716.68l-0,178.487l22.5,-0l-0,-143.239l0.5,-0l93.25,143.239l26,-0l-0,-178.487l-22.5,0l-0,144.74l-0.5,-0l-94,-144.74l-25.25,0Z" style="fill-rule:nonzero;"/><rect x="3260.42" y="716.68" width="23.75" height="178.486" style="fill-rule:nonzero;"/></svg>