<svg clip-rule="evenodd" fill-rule="evenodd" stroke-linejoin="round" stroke-miterlimit="2" viewBox="0 0 600 92" xmlns="http://www.w3.org/2000/svg"><g fill-rule="nonzero"><path d="m.491-.009c-.015.006-.029.01-.04.014-.012.003-.025.005-.039.005-.026 0-.046-.006-.061-.018s-.025-.029-.029-.052h-.003c-.021.023-.044.041-.068.054-.025.012-.054.018-.088.018-.036 0-.066-.011-.089-.033s-.035-.051-.035-.087c0-.018.003-.035.008-.05.005-.014.013-.028.023-.039.008-.01.019-.019.033-.026.013-.008.025-.014.037-.019.015-.005.044-.015.089-.03s.075-.027.091-.036v-.048c0-.004-.001-.012-.003-.024s-.005-.024-.011-.035c-.007-.012-.016-.022-.028-.031s-.029-.013-.05-.013c-.015 0-.029.002-.042.007s-.022.01-.027.016c0 .006.001.016.004.029.003.012.005.024.005.035s-.005.022-.015.031c-.011.01-.025.014-.043.014-.016 0-.028-.005-.036-.017s-.011-.024-.011-.039.005-.029.015-.043c.011-.013.025-.026.042-.036.014-.01.032-.017.053-.024.021-.006.041-.009.061-.009.027 0 .051.002.071.005.021.004.039.012.056.025.016.012.029.028.038.049.008.02.013.047.013.08 0 .046-.001.087-.002.123s-.001.076-.001.118c0 .013.002.023.006.031.005.007.011.013.021.019.004.003.012.004.023.004.01.001.021.001.032.001zm-.17-.258c-.028.009-.052.017-.073.024-.021.008-.04.018-.058.03-.016.011-.029.024-.039.039-.009.015-.014.033-.014.054 0 .027.007.047.021.059.015.013.033.019.054.019.024 0 .044-.005.061-.016.018-.012.033-.025.045-.04z" transform="matrix(180.2966 0 0 180.2966 -7.043678022 89.355538354)"/><path d="m.404-.419c0 .016-.004.031-.012.044-.009.013-.021.019-.038.019-.018 0-.032-.005-.042-.014-.009-.01-.014-.02-.014-.031 0-.008 0-.014.002-.02.001-.006.002-.012.003-.017-.016 0-.033.006-.054.018-.02.012-.038.03-.052.053v.28c0 .011.002.021.006.028.005.007.012.012.021.016.008.003.019.006.032.007.012.002.024.003.033.004v.032h-.254v-.032c.008-.001.015-.002.023-.002.008-.001.015-.002.021-.004.009-.003.016-.008.02-.015.005-.008.007-.017.007-.029v-.297c0-.01-.002-.02-.007-.03s-.011-.018-.02-.024c-.006-.004-.013-.006-.022-.008-.008-.002-.017-.003-.027-.004v-.032l.16-.01.007.007v.067h.002c.02-.026.043-.046.068-.06.024-.013.047-.02.067-.02.021 0 .038.007.051.02.012.013.019.031.019.054z" transform="matrix(180.2966 0 0 180.2966 83.808680201 89.355538354)"/><path d="m.353-.236c.013.012.024.025.031.041.007.015.011.034.011.056 0 .044-.017.081-.051.109-.033.029-.076.043-.129.043-.028 0-.054-.005-.078-.015-.023-.011-.04-.02-.05-.028l-.01.031h-.036l-.005-.167h.033c.003.013.008.027.017.044.008.017.019.033.031.046.012.015.028.027.045.036.018.01.038.015.06.015.031 0 .056-.007.072-.021.017-.014.026-.035.026-.061 0-.014-.003-.025-.008-.035-.006-.01-.013-.019-.024-.026-.011-.008-.024-.015-.039-.021-.016-.006-.034-.012-.053-.018-.015-.004-.032-.01-.051-.018-.018-.008-.034-.018-.048-.028-.014-.012-.026-.026-.035-.042-.009-.017-.014-.037-.014-.059 0-.039.015-.073.044-.1.03-.027.069-.041.118-.041.019 0 .038.002.058.007s.036.011.048.018l.011-.026h.035l.008.155h-.034c-.007-.034-.022-.062-.044-.084-.023-.022-.05-.033-.083-.033-.027 0-.048.007-.063.02-.015.014-.023.03-.023.049 0 .014.003.027.008.036.005.01.012.019.022.025.01.007.022.013.037.019.015.005.033.012.055.019s.042.015.061.024.035.019.047.03z" transform="matrix(180.2966 0 0 180.2966 157.670788323 89.355538354)"/><path d="m.86 0h-.235v-.032c.007-.001.015-.002.023-.002.007-.001.014-.002.02-.004.009-.003.016-.008.02-.015.005-.008.007-.017.007-.029v-.249c0-.033-.008-.06-.023-.078-.016-.018-.035-.028-.058-.028-.016 0-.031.003-.045.008s-.027.012-.039.02c-.009.007-.017.015-.023.024-.007.008-.012.015-.015.02v.278c0 .011.002.021.006.028s.011.013.02.017c.008.003.014.005.02.007.006.001.014.002.024.003v.032h-.23v-.032c.008-.001.015-.002.022-.002.007-.001.013-.002.019-.004.009-.003.016-.008.02-.015.005-.008.007-.017.007-.029v-.249c0-.033-.008-.06-.023-.078-.016-.018-.035-.028-.058-.028-.016 0-.031.003-.045.008s-.027.012-.039.021c-.009.007-.017.015-.024.024-.006.009-.011.016-.014.02v.276c0 .011.002.02.007.028.004.007.011.013.02.017.007.003.014.006.021.007.007.002.015.003.024.004v.032h-.234v-.032c.008-.001.015-.002.023-.002.008-.001.015-.002.021-.004.009-.003.016-.008.02-.015.005-.008.007-.017.007-.029v-.299c0-.011-.002-.02-.007-.028-.005-.009-.011-.016-.02-.022-.006-.004-.014-.007-.023-.009-.009-.003-.018-.004-.028-.005v-.032l.161-.01.007.007v.068h.003c.008-.008.018-.017.03-.028s.023-.02.033-.027c.011-.008.025-.015.042-.02.018-.005.036-.008.056-.008.031 0 .058.009.08.026.023.016.039.037.049.06.011-.011.022-.021.031-.03.009-.008.021-.018.035-.027.013-.009.027-.016.044-.021s.035-.008.056-.008c.04 0 .073.014.096.04.024.027.036.068.036.123v.245c0 .011.002.021.006.028s.011.013.02.017c.007.003.015.005.022.007.008.001.016.002.025.003z" transform="matrix(180.2966 0 0 180.2966 266.450938967 89.355538354)"/><path d="m.463-.113c-.02.038-.047.069-.081.092-.034.022-.073.034-.117.034-.039 0-.073-.007-.102-.021-.029-.013-.053-.032-.072-.055-.019-.024-.033-.051-.042-.083-.009-.031-.014-.064-.014-.099 0-.031.005-.062.015-.092s.025-.057.044-.081c.018-.023.041-.042.069-.056.027-.014.058-.021.092-.021.036 0 .066.005.091.016.025.012.045.027.061.046.015.018.026.04.033.064.008.025.011.052.011.081v.032h-.319c0 .032.003.06.009.086s.016.048.029.068c.013.019.029.034.05.045.02.011.045.016.073.016.029 0 .054-.007.075-.02.021-.014.041-.038.061-.073zm-.108-.184c0-.018-.002-.038-.005-.058-.003-.021-.008-.039-.015-.053-.007-.015-.017-.027-.03-.036-.013-.01-.03-.014-.051-.014-.034 0-.062.014-.085.042-.022.029-.035.068-.037.119z" transform="matrix(180.2966 0 0 180.2966 422.30923632 89.355538354)"/><path d="m.491-.009c-.015.006-.029.01-.04.014-.012.003-.025.005-.039.005-.026 0-.046-.006-.061-.018s-.025-.029-.029-.052h-.003c-.021.023-.044.041-.068.054-.025.012-.054.018-.088.018-.036 0-.066-.011-.089-.033s-.035-.051-.035-.087c0-.018.003-.035.008-.05.005-.014.013-.028.023-.039.008-.01.019-.019.033-.026.013-.008.025-.014.037-.019.015-.005.044-.015.089-.03s.075-.027.091-.036v-.048c0-.004-.001-.012-.003-.024s-.005-.024-.011-.035c-.007-.012-.016-.022-.028-.031s-.029-.013-.05-.013c-.015 0-.029.002-.042.007s-.022.01-.027.016c0 .006.001.016.004.029.003.012.005.024.005.035s-.005.022-.015.031c-.011.01-.025.014-.043.014-.016 0-.028-.005-.036-.017s-.011-.024-.011-.039.005-.029.015-.043c.011-.013.025-.026.042-.036.014-.01.032-.017.053-.024.021-.006.041-.009.061-.009.027 0 .051.002.071.005.021.004.039.012.056.025.016.012.029.028.038.049.008.02.013.047.013.08 0 .046-.001.087-.002.123s-.001.076-.001.118c0 .013.002.023.006.031.005.007.011.013.021.019.004.003.012.004.023.004.01.001.021.001.032.001zm-.17-.258c-.028.009-.052.017-.073.024-.021.008-.04.018-.058.03-.016.011-.029.024-.039.039-.009.015-.014.033-.014.054 0 .027.007.047.021.059.015.013.033.019.054.019.024 0 .044-.005.061-.016.018-.012.033-.025.045-.04z" transform="matrix(180.2966 0 0 180.2966 511.43886053 89.355538354)"/></g></svg>